<mxfile host="Electron" agent="Mozilla/5.0 (Macintosh; Intel Mac OS X 10_15_7) AppleWebKit/537.36 (KHTML, like Gecko) draw.io/24.7.17 Chrome/128.0.6613.36 Electron/32.0.1 Safari/537.36" version="24.7.17">
  <diagram name="Page-1" id="cXaKhMmsQXxXB0EpLjLP">
    <mxGraphModel dx="2474" dy="854" grid="0" gridSize="10" guides="1" tooltips="1" connect="1" arrows="1" fold="1" page="0" pageScale="1" pageWidth="827" pageHeight="1169" math="0" shadow="0">
      <root>
        <mxCell id="0" />
        <mxCell id="1" parent="0" />
        <mxCell id="SQUKfxmg1fvOQb4yhyu0-2" value="&lt;font color=&quot;#3399ff&quot;&gt;Action Group&lt;/font&gt;&lt;div&gt;&lt;b&gt;&lt;font color=&quot;#3399ff&quot;&gt;SQLAgent&lt;/font&gt;&lt;/b&gt;&lt;br&gt;&lt;/div&gt;" style="rounded=1;whiteSpace=wrap;html=1;align=left;verticalAlign=top;arcSize=0;dashed=1;strokeColor=#3399FF;strokeWidth=2;spacing=9;" vertex="1" parent="1">
          <mxGeometry x="200" y="190" width="360" height="230" as="geometry" />
        </mxCell>
        <mxCell id="SQUKfxmg1fvOQb4yhyu0-3" style="edgeStyle=orthogonalEdgeStyle;rounded=0;orthogonalLoop=1;jettySize=auto;html=1;startArrow=none;startFill=0;" edge="1" parent="1" source="SQUKfxmg1fvOQb4yhyu0-1" target="SQUKfxmg1fvOQb4yhyu0-4">
          <mxGeometry relative="1" as="geometry" />
        </mxCell>
        <mxCell id="SQUKfxmg1fvOQb4yhyu0-16" style="edgeStyle=orthogonalEdgeStyle;rounded=0;orthogonalLoop=1;jettySize=auto;html=1;" edge="1" parent="1" source="SQUKfxmg1fvOQb4yhyu0-1" target="SQUKfxmg1fvOQb4yhyu0-10">
          <mxGeometry relative="1" as="geometry">
            <Array as="points">
              <mxPoint x="-26" y="294" />
              <mxPoint x="-26" y="294" />
            </Array>
          </mxGeometry>
        </mxCell>
        <mxCell id="SQUKfxmg1fvOQb4yhyu0-17" value="response" style="edgeLabel;html=1;align=center;verticalAlign=middle;resizable=0;points=[];" vertex="1" connectable="0" parent="SQUKfxmg1fvOQb4yhyu0-16">
          <mxGeometry x="0.0476" y="2" relative="1" as="geometry">
            <mxPoint x="5" y="5" as="offset" />
          </mxGeometry>
        </mxCell>
        <mxCell id="SQUKfxmg1fvOQb4yhyu0-1" value="Amazon Bedrock&amp;nbsp;&lt;div&gt;Agent&lt;/div&gt;" style="sketch=0;points=[[0,0,0],[0.25,0,0],[0.5,0,0],[0.75,0,0],[1,0,0],[0,1,0],[0.25,1,0],[0.5,1,0],[0.75,1,0],[1,1,0],[0,0.25,0],[0,0.5,0],[0,0.75,0],[1,0.25,0],[1,0.5,0],[1,0.75,0]];outlineConnect=0;fontColor=#232F3E;fillColor=#01A88D;strokeColor=#ffffff;dashed=0;verticalLabelPosition=bottom;verticalAlign=top;align=center;html=1;fontSize=12;fontStyle=0;aspect=fixed;shape=mxgraph.aws4.resourceIcon;resIcon=mxgraph.aws4.bedrock;" vertex="1" parent="1">
          <mxGeometry x="40" y="243" width="78" height="78" as="geometry" />
        </mxCell>
        <mxCell id="SQUKfxmg1fvOQb4yhyu0-6" style="edgeStyle=orthogonalEdgeStyle;rounded=0;orthogonalLoop=1;jettySize=auto;html=1;startArrow=classic;startFill=1;" edge="1" parent="1" source="SQUKfxmg1fvOQb4yhyu0-4" target="SQUKfxmg1fvOQb4yhyu0-5">
          <mxGeometry relative="1" as="geometry" />
        </mxCell>
        <mxCell id="SQUKfxmg1fvOQb4yhyu0-13" style="edgeStyle=orthogonalEdgeStyle;rounded=0;orthogonalLoop=1;jettySize=auto;html=1;" edge="1" parent="1" source="SQUKfxmg1fvOQb4yhyu0-4" target="SQUKfxmg1fvOQb4yhyu0-12">
          <mxGeometry relative="1" as="geometry" />
        </mxCell>
        <mxCell id="SQUKfxmg1fvOQb4yhyu0-4" value="AWS Lambda&lt;div&gt;Langchain SQL Agent&lt;br&gt;&lt;div&gt;Query formulation / execution&lt;/div&gt;&lt;/div&gt;" style="outlineConnect=0;dashed=0;verticalLabelPosition=top;verticalAlign=bottom;align=center;html=1;shape=mxgraph.aws3.lambda_function;fillColor=#F58534;gradientColor=none;labelPosition=center;" vertex="1" parent="1">
          <mxGeometry x="420.5" y="246" width="69" height="72" as="geometry" />
        </mxCell>
        <mxCell id="SQUKfxmg1fvOQb4yhyu0-5" value="Amazon Bedrock&amp;nbsp;&lt;div&gt;LLM&lt;/div&gt;" style="sketch=0;points=[[0,0,0],[0.25,0,0],[0.5,0,0],[0.75,0,0],[1,0,0],[0,1,0],[0.25,1,0],[0.5,1,0],[0.75,1,0],[1,1,0],[0,0.25,0],[0,0.5,0],[0,0.75,0],[1,0.25,0],[1,0.5,0],[1,0.75,0]];outlineConnect=0;fontColor=#232F3E;fillColor=#01A88D;strokeColor=#ffffff;dashed=0;verticalLabelPosition=bottom;verticalAlign=top;align=center;html=1;fontSize=12;fontStyle=0;aspect=fixed;shape=mxgraph.aws4.resourceIcon;resIcon=mxgraph.aws4.bedrock;" vertex="1" parent="1">
          <mxGeometry x="600" y="243" width="78" height="78" as="geometry" />
        </mxCell>
        <mxCell id="SQUKfxmg1fvOQb4yhyu0-11" style="edgeStyle=orthogonalEdgeStyle;rounded=0;orthogonalLoop=1;jettySize=auto;html=1;" edge="1" parent="1" source="SQUKfxmg1fvOQb4yhyu0-10" target="SQUKfxmg1fvOQb4yhyu0-1">
          <mxGeometry relative="1" as="geometry">
            <Array as="points">
              <mxPoint x="-24" y="278" />
              <mxPoint x="-24" y="278" />
            </Array>
          </mxGeometry>
        </mxCell>
        <mxCell id="SQUKfxmg1fvOQb4yhyu0-14" value="Invoke Agent" style="edgeLabel;html=1;align=center;verticalAlign=middle;resizable=0;points=[];" vertex="1" connectable="0" parent="SQUKfxmg1fvOQb4yhyu0-11">
          <mxGeometry x="0.1737" relative="1" as="geometry">
            <mxPoint y="-12" as="offset" />
          </mxGeometry>
        </mxCell>
        <mxCell id="SQUKfxmg1fvOQb4yhyu0-10" value="User" style="sketch=0;outlineConnect=0;fontColor=#232F3E;gradientColor=none;fillColor=#232F3D;strokeColor=none;dashed=0;verticalLabelPosition=bottom;verticalAlign=top;align=center;html=1;fontSize=12;fontStyle=0;aspect=fixed;pointerEvents=1;shape=mxgraph.aws4.user;" vertex="1" parent="1">
          <mxGeometry x="-170" y="243" width="78" height="78" as="geometry" />
        </mxCell>
        <mxCell id="SQUKfxmg1fvOQb4yhyu0-12" value="&lt;span style=&quot;color: rgb(0, 0, 0); text-align: right; background-color: rgb(255, 255, 255);&quot;&gt;SQL Lite&lt;/span&gt;&lt;div style=&quot;color: rgb(0, 0, 0); text-align: right;&quot;&gt;Records, Sales, Employee, etc&lt;/div&gt;" style="sketch=0;outlineConnect=0;fontColor=#232F3E;gradientColor=none;fillColor=#232F3D;strokeColor=none;dashed=0;verticalLabelPosition=middle;verticalAlign=middle;align=right;html=1;fontSize=12;fontStyle=0;aspect=fixed;pointerEvents=1;shape=mxgraph.aws4.generic_database;labelPosition=left;" vertex="1" parent="1">
          <mxGeometry x="436.09" y="350" width="37.82" height="50" as="geometry" />
        </mxCell>
        <mxCell id="SQUKfxmg1fvOQb4yhyu0-15" value="1" style="ellipse;whiteSpace=wrap;html=1;aspect=fixed;rotation=0;gradientColor=#223548;strokeColor=none;gradientDirection=east;fillColor=#5b738b;rounded=0;pointerEvents=0;fontFamily=Helvetica;fontSize=16;fontColor=#FFFFFF;spacingTop=4;spacingBottom=4;spacingLeft=4;spacingRight=4;points=[];fontStyle=1" vertex="1" parent="1">
          <mxGeometry x="-31" y="219" width="30" height="30" as="geometry" />
        </mxCell>
        <mxCell id="SQUKfxmg1fvOQb4yhyu0-18" value="2" style="ellipse;whiteSpace=wrap;html=1;aspect=fixed;rotation=0;gradientColor=#223548;strokeColor=none;gradientDirection=east;fillColor=#5b738b;rounded=0;pointerEvents=0;fontFamily=Helvetica;fontSize=16;fontColor=#FFFFFF;spacingTop=4;spacingBottom=4;spacingLeft=4;spacingRight=4;points=[];fontStyle=1" vertex="1" parent="1">
          <mxGeometry x="288" y="204" width="30" height="30" as="geometry" />
        </mxCell>
        <mxCell id="SQUKfxmg1fvOQb4yhyu0-19" value="4" style="ellipse;whiteSpace=wrap;html=1;aspect=fixed;rotation=0;gradientColor=#223548;strokeColor=none;gradientDirection=east;fillColor=#5b738b;rounded=0;pointerEvents=0;fontFamily=Helvetica;fontSize=16;fontColor=#FFFFFF;spacingTop=4;spacingBottom=4;spacingLeft=4;spacingRight=4;points=[];fontStyle=1" vertex="1" parent="1">
          <mxGeometry x="-35" y="312" width="30" height="30" as="geometry" />
        </mxCell>
        <mxCell id="SQUKfxmg1fvOQb4yhyu0-20" value="3" style="ellipse;whiteSpace=wrap;html=1;aspect=fixed;rotation=0;gradientColor=#223548;strokeColor=none;gradientDirection=east;fillColor=#5b738b;rounded=0;pointerEvents=0;fontFamily=Helvetica;fontSize=16;fontColor=#FFFFFF;spacingTop=4;spacingBottom=4;spacingLeft=4;spacingRight=4;points=[];fontStyle=1" vertex="1" parent="1">
          <mxGeometry x="483" y="310" width="30" height="30" as="geometry" />
        </mxCell>
      </root>
    </mxGraphModel>
  </diagram>
</mxfile>
